<?xml version="1.0" standalone="no"?>
<!DOCTYPE svg PUBLIC "-//W3C//DTD SVG 20010904//EN"
 "http://www.w3.org/TR/2001/REC-SVG-20010904/DTD/svg10.dtd">
<svg version="1.0" xmlns="http://www.w3.org/2000/svg"
 width="847.000000pt" height="476.000000pt" viewBox="0 0 847.000000 476.000000"
 preserveAspectRatio="xMidYMid meet">
<metadata>
Created by potrace 1.16, written by Peter Selinger 2001-2019
</metadata>
<g transform="translate(0.000000,476.000000) scale(0.100000,-0.100000)"
fill="#000000" stroke="none">
<path d="M0 3641 l0 -1118 113 3 c175 6 216 19 184 61 -13 18 -4 65 15 77 28
17 43 -8 41 -69 -2 -49 0 -54 25 -64 15 -6 65 -11 112 -13 131 -2 513 10 532
17 14 6 18 19 18 61 0 55 2 59 73 163 l18 26 -6 -27 c-3 -16 -7 -39 -10 -53
-3 -14 -1 -25 5 -25 7 0 9 -22 6 -65 -5 -62 -4 -65 19 -71 33 -8 45 2 45 40 0
20 8 40 20 51 17 15 20 31 20 95 0 47 5 81 12 88 10 10 8 14 -8 18 -22 6 -44
42 -44 71 0 11 5 9 19 -8 19 -23 21 -23 37 -7 15 14 16 21 6 43 -16 34 -15 66
3 89 21 27 19 53 -5 66 -11 6 -20 17 -20 25 0 17 16 20 25 5 10 -17 19 -11 42
25 19 28 22 43 16 82 l-6 48 22 -19 c21 -19 21 -19 21 9 0 15 9 42 19 59 20
32 34 141 35 271 1 50 4 60 20 63 16 3 18 0 12 -30 -7 -41 7 -69 26 -50 26 26
38 13 38 -42 0 -30 5 -58 11 -62 6 -3 25 10 43 30 34 40 51 39 35 -1 -5 -13
-9 -31 -9 -39 0 -21 28 -17 40 7 7 11 19 19 28 16 34 -7 67 20 92 77 32 73 55
76 45 6 -5 -33 -3 -50 4 -51 6 -1 17 -2 23 -3 7 0 14 -9 16 -18 2 -12 -3 -18
-17 -18 -11 0 -22 -4 -26 -9 -3 -6 -39 -15 -79 -22 l-74 -13 16 -22 c13 -17
24 -21 49 -17 25 4 33 1 43 -17 23 -43 -9 -120 -44 -107 -10 4 -13 1 -10 -7 3
-8 1 -17 -5 -20 -6 -4 -13 5 -17 19 -9 35 -19 31 -34 -15 -8 -26 -19 -40 -30
-40 -22 0 -49 31 -59 66 -4 15 -15 32 -25 38 -14 9 -22 6 -42 -17 -25 -29 -36
-73 -12 -49 33 33 78 -3 78 -62 0 -29 24 -63 34 -47 5 8 13 8 27 0 11 -5 32
-11 46 -12 15 -1 35 -14 46 -29 28 -38 11 -78 -32 -78 -36 0 -46 -13 -25 -31
15 -12 13 -14 -17 -21 -29 -6 -37 -3 -56 20 -19 22 -22 35 -17 67 4 22 10 42
15 43 5 2 9 7 9 12 0 11 -54 -16 -70 -35 -17 -21 -59 -19 -67 3 -15 43 -73 82
-73 48 0 -18 25 -38 35 -28 4 4 5 -5 1 -21 -5 -20 -2 -29 9 -33 8 -4 15 -18
15 -33 0 -44 14 -55 64 -52 41 2 46 0 46 -18 0 -23 16 -29 23 -8 6 15 27 -36
27 -64 0 -11 4 -28 9 -38 7 -13 3 -25 -15 -48 -25 -32 -52 -35 -75 -7 -9 11
-16 11 -42 -2 -24 -13 -35 -14 -49 -5 -16 10 -18 8 -18 -13 0 -19 7 -26 30
-31 17 -4 35 -15 40 -26 6 -10 19 -19 30 -19 23 0 50 -36 50 -66 0 -65 -45
-118 -78 -92 -10 8 -13 9 -9 1 4 -6 3 -14 -2 -17 -5 -4 -12 3 -16 14 -3 11
-11 20 -17 20 -5 0 -7 -7 -4 -16 4 -10 0 -18 -13 -21 -11 -3 -22 -12 -26 -21
-9 -25 13 -34 95 -36 27 -1 40 -33 32 -78 -3 -17 0 -28 7 -28 21 0 13 -68 -10
-84 -16 -11 -20 -22 -17 -40 7 -33 -5 -33 -31 0 -17 22 -24 25 -48 17 -17 -6
-29 -18 -31 -31 -3 -22 1 -26 51 -36 15 -4 27 -13 27 -21 0 -9 9 -15 24 -15
33 0 49 -24 50 -74 1 -30 -5 -51 -18 -65 -19 -20 -18 -21 8 -61 25 -37 28 -68
5 -55 -19 12 -8 -10 15 -30 13 -11 27 -30 31 -42 6 -20 3 -23 -25 -23 -22 0
-33 6 -41 23 -5 12 -28 33 -50 45 -27 15 -39 29 -37 40 4 17 15 19 56 6 16 -5
22 -2 22 9 0 22 -28 47 -61 54 -18 3 -36 18 -49 40 -28 48 -55 42 -54 -13 0
-22 7 -53 15 -70 9 -16 15 -53 15 -81 -1 -28 2 -47 5 -41 3 5 9 -5 12 -22 6
-28 10 -31 39 -28 42 4 52 -27 14 -42 -31 -11 -26 -34 13 -55 14 -8 20 -14 14
-15 -18 0 -16 -35 3 -51 9 -7 20 -23 25 -36 9 -24 33 -31 44 -13 7 12 35 -5
35 -21 0 -13 -84 1 -93 17 -12 21 -50 17 -65 -6 -17 -27 -41 -25 -52 5 -5 14
-14 25 -20 25 -5 0 -13 12 -16 28 -4 15 -15 35 -25 45 -18 17 -19 17 -19 -1 0
-11 7 -25 15 -32 8 -7 15 -18 15 -25 0 -7 7 -15 15 -19 8 -3 15 -12 15 -21 0
-33 69 -85 224 -170 48 -26 101 -61 119 -79 131 -129 219 -250 288 -394 23
-48 46 -90 53 -94 8 -6 7 -11 -4 -18 -8 -5 -10 -10 -4 -10 7 0 15 -16 18 -35
8 -40 21 -51 41 -35 22 18 70 3 83 -25 13 -28 32 -31 62 -13 15 10 22 10 32 0
9 -9 8 -12 -6 -12 -14 0 -16 -4 -10 -17 4 -10 7 -34 6 -53 -1 -32 0 -33 9 -11
5 14 8 30 5 37 -3 8 1 11 10 7 7 -3 14 0 14 7 0 7 7 10 17 6 10 -4 25 2 40 16
20 19 27 20 43 10 32 -19 50 -15 50 13 0 21 5 25 33 26 17 1 37 0 42 -1 30 -8
69 -1 79 12 7 9 25 18 41 20 22 2 30 8 31 23 0 11 4 37 8 58 8 43 -2 109 -16
101 -5 -4 -8 29 -6 83 3 94 -3 113 -32 113 -10 0 -27 11 -37 24 -10 14 -27 26
-38 27 -32 4 -74 -19 -87 -46 -11 -24 -13 -24 -34 -10 -13 8 -42 16 -64 17
-41 1 -52 11 -25 22 20 7 19 43 -2 55 -17 9 -16 11 3 33 12 13 25 44 29 71 3
27 17 70 31 97 30 60 30 78 -1 124 -14 20 -25 42 -25 48 0 7 -16 9 -45 6 -32
-4 -48 -1 -57 10 -20 24 -14 148 10 223 23 71 24 85 20 196 -2 39 0 66 3 61 4
-6 11 -8 17 -4 12 7 44 110 41 134 -3 35 1 45 14 34 8 -6 20 -6 37 1 l25 10
-29 6 c-16 3 -34 14 -39 23 -15 23 8 64 45 80 15 7 28 18 28 25 0 20 24 20 60
0 19 -10 41 -24 48 -29 8 -7 17 -7 27 2 21 18 20 -9 -2 -49 -14 -24 -15 -33
-5 -43 10 -10 17 -7 37 13 24 24 25 28 14 77 -9 43 -13 51 -25 42 -10 -9 -19
-6 -38 15 -14 15 -23 32 -19 39 4 6 8 17 9 26 1 8 5 23 9 33 12 28 -29 21 -45
-7 -7 -14 -18 -22 -27 -19 -10 4 -11 9 -2 19 6 8 9 25 5 38 -5 21 2 45 27 83
6 10 17 7 45 -12 20 -14 42 -25 50 -25 20 0 30 -40 19 -76 -13 -41 -3 -71 17
-54 11 9 21 8 43 -3 15 -8 38 -18 51 -21 19 -6 22 -4 22 18 0 27 -32 56 -62
56 -13 0 -18 8 -18 29 0 17 5 33 10 36 15 9 12 25 -4 25 -7 0 -17 14 -22 31
-7 25 -18 34 -54 46 -62 21 -68 28 -41 57 27 29 22 61 -8 51 -16 -5 -19 2 -25
46 -8 61 -1 73 24 41 17 -20 23 -21 60 -13 40 9 41 9 39 -17 -1 -15 -1 -55 -1
-89 2 -49 5 -63 17 -63 9 0 18 7 22 15 4 11 16 15 37 13 28 -3 31 -1 31 27 0
24 -4 30 -23 31 -12 1 -24 3 -25 5 -1 2 -12 19 -25 37 -13 18 -22 38 -21 45 4
25 -14 67 -30 68 -59 3 -71 13 -88 77 -16 63 -16 83 2 109 l16 22 48 -34 c53
-38 71 -43 71 -19 0 16 -58 74 -75 74 -20 0 -66 52 -61 67 4 9 2 21 -2 27 -6
6 -3 25 5 45 11 25 17 31 26 22 16 -16 37 -14 37 3 0 15 -57 62 -65 54 -3 -2
-10 -27 -17 -55 l-14 -51 -33 14 c-18 8 -35 14 -37 14 -11 0 -2 -49 11 -60 8
-7 15 -18 15 -25 0 -7 9 -24 21 -39 l20 -26 -22 -32 c-12 -18 -23 -34 -24 -36
-1 -1 -21 5 -45 13 -23 8 -53 15 -65 15 -29 0 -35 16 -28 71 6 48 36 89 65 89
23 0 25 42 3 60 -9 7 -15 20 -13 29 1 9 -4 31 -11 50 -13 30 -13 35 3 47 25
18 14 64 -14 64 -11 0 -20 6 -20 14 0 8 -14 40 -30 71 -42 79 -39 100 6 50 20
-21 40 -49 43 -62 3 -12 9 -23 14 -23 45 -1 59 4 85 30 37 36 42 37 42 6 0
-48 18 -35 49 34 39 87 40 126 6 142 -32 14 -32 33 2 55 14 10 38 30 52 44 14
14 35 30 46 36 33 17 136 50 195 63 30 6 84 22 120 35 36 13 97 33 135 44 195
57 280 83 385 122 167 61 185 65 204 50 9 -8 16 -28 16 -45 0 -39 -48 -89 -88
-92 -15 -1 -30 -3 -34 -3 -5 -1 -8 -7 -8 -14 0 -16 -51 -67 -67 -67 -6 0 -14
8 -18 18 -5 12 6 28 40 59 49 45 56 76 18 81 -14 2 -34 -10 -60 -37 -52 -54
-58 -62 -70 -96 -7 -22 -15 -29 -31 -27 -14 2 -37 -13 -71 -48 -28 -28 -51
-55 -51 -60 0 -5 -13 -11 -30 -15 -16 -4 -30 -10 -30 -13 0 -9 -50 -32 -68
-32 -20 0 -92 -59 -92 -76 0 -7 -12 -17 -26 -20 -14 -4 -46 -22 -70 -40 -24
-19 -50 -34 -57 -34 -6 0 -25 -19 -41 -41 -15 -22 -34 -38 -41 -35 -25 9 -55
-37 -55 -85 0 -24 -6 -55 -13 -69 -7 -14 -14 -59 -15 -99 -2 -41 -8 -81 -14
-88 -7 -9 -7 -21 2 -44 10 -22 10 -33 1 -42 -6 -6 -11 -17 -11 -24 0 -23 17
-14 30 17 7 17 16 30 21 30 13 0 22 -47 15 -83 -4 -17 -9 -56 -13 -85 -5 -46
-3 -56 17 -77 13 -14 29 -25 37 -25 18 0 16 -13 -8 -43 l-20 -27 26 -45 c28
-46 29 -69 9 -163 -4 -22 -2 -43 7 -59 13 -23 11 -27 -14 -47 l-27 -22 25 -24
c30 -29 32 -68 5 -103 -11 -14 -20 -33 -20 -44 -1 -49 -40 -54 -40 -5 l-1 27
-15 -28 c-14 -25 -14 -31 -1 -45 8 -10 17 -26 21 -36 6 -18 10 -16 41 14 23
22 35 29 35 19 0 -8 -5 -20 -10 -25 -6 -6 -12 -30 -13 -54 -2 -40 0 -44 27
-51 65 -18 82 -62 66 -165 -11 -67 -88 -311 -114 -363 -9 -16 -16 -41 -16 -54
0 -14 -12 -60 -26 -103 -25 -75 -26 -78 -9 -106 15 -27 16 -31 1 -47 -24 -27
-19 -47 14 -61 39 -16 44 -25 24 -45 -15 -15 -15 -21 2 -80 16 -56 21 -64 39
-59 20 5 20 5 1 -10 -15 -13 -23 -44 -37 -158 -10 -79 -18 -162 -19 -184 0
-60 38 -245 58 -274 11 -18 15 -42 13 -81 -1 -33 5 -85 18 -130 11 -41 27
-104 36 -141 l17 -68 2784 0 2784 0 0 2354 c0 2232 -1 2354 -17 2361 -10 4
-39 7 -64 6 -26 -2 -50 2 -53 8 -9 14 -105 2 -133 -16 -19 -12 -59 -13 -270
-4 -298 13 -345 18 -369 36 -22 17 -85 20 -101 4 -6 -6 -62 -8 -164 -4 -85 3
-830 8 -1655 11 l-1501 5 -6 -21 c-3 -11 -1 -23 4 -26 19 -11 -13 -34 -47 -34
-26 0 -34 -4 -34 -18 0 -35 -51 -65 -107 -63 -17 1 -22 -6 -25 -32 l-4 -32 -8
30 c-4 17 -9 40 -12 53 -3 15 -12 22 -29 22 -32 0 -38 13 -36 72 l1 48 -41 0
-41 0 6 -34 c4 -19 1 -75 -5 -125 -11 -88 -24 -116 -31 -68 -2 12 -9 21 -15
20 -6 -1 -14 19 -18 50 -4 29 -14 61 -21 72 -8 11 -14 34 -14 52 l0 33 -210 0
-210 0 16 -25 c18 -27 12 -60 -14 -70 -31 -12 -146 -15 -184 -4 -42 11 -63 39
-54 75 l6 24 -404 0 -404 0 -16 -32 -16 -33 0 33 0 32 -200 0 c-193 0 -200 -1
-200 -20 0 -23 -1 -24 -34 -9 -31 14 -72 5 -80 -18 -3 -10 -11 -26 -18 -35
-10 -13 -9 -22 2 -42 17 -32 9 -41 -22 -25 -34 18 -39 31 -17 52 10 10 19 23
19 28 0 6 10 19 22 28 24 20 17 41 -13 41 -12 0 -19 -7 -19 -18 0 -15 -6 -18
-29 -14 -37 5 -46 -10 -27 -46 17 -33 13 -42 -20 -42 -15 0 -24 -8 -28 -25 -4
-14 -24 -36 -46 -50 -22 -14 -40 -32 -40 -40 0 -10 -10 -15 -27 -15 -16 0 -41
-7 -57 -15 -48 -25 -47 -17 5 36 27 28 49 59 49 69 0 10 12 25 26 35 17 11 23
22 19 32 -3 9 -1 20 6 23 7 5 9 19 4 39 l-7 31 -719 0 -719 0 0 -1119z m2445
1039 c21 -41 19 -68 -9 -104 -46 -61 -57 -93 -50 -146 4 -27 13 -55 20 -61 8
-6 14 -18 14 -27 0 -12 -5 -11 -23 6 -13 12 -29 22 -35 22 -7 0 -20 4 -30 10
-9 5 -55 23 -102 39 l-85 29 48 7 c29 5 52 3 60 -3 20 -17 57 -3 57 21 0 11 3
18 6 14 11 -11 35 22 53 74 15 40 16 58 8 84 -13 43 -4 65 27 65 18 0 30 -9
41 -30z m-599 -314 c6 -14 79 -12 98 3 19 16 26 2 15 -27 -5 -13 -25 -29 -44
-38 -19 -8 -35 -21 -35 -29 0 -20 -26 -19 -34 1 -3 8 -1 24 4 34 24 45 -3 40
-55 -9 -22 -21 -62 -47 -88 -56 -27 -10 -59 -27 -73 -37 -32 -26 -81 -16 -94
18 -5 13 -14 24 -20 24 -14 0 -13 27 3 37 7 4 21 25 32 46 11 20 25 35 31 33
6 -2 16 0 22 6 5 5 45 11 87 14 43 2 80 5 82 8 8 7 64 -15 69 -28z m2269 -94
c80 -28 144 -78 169 -132 13 -27 45 -67 76 -95 30 -27 56 -52 58 -56 2 -5 21
-13 42 -19 40 -11 80 -2 110 24 39 35 122 21 200 -32 25 -17 43 -22 65 -18 18
4 39 1 50 -7 11 -7 38 -19 61 -26 23 -7 55 -26 72 -43 19 -17 41 -28 54 -27
41 4 58 -1 58 -15 0 -8 -6 -16 -14 -19 -7 -3 -17 -25 -21 -49 -12 -68 -13 -69
-28 -86 -14 -16 -15 -71 -2 -93 4 -5 -1 -23 -9 -41 -8 -18 -14 -51 -13 -73 2
-33 5 -39 20 -37 12 2 21 -4 24 -18 4 -15 10 -19 22 -14 23 11 134 5 142 -7 9
-16 21 -313 13 -334 -8 -19 -10 -22 -75 -95 -34 -38 -37 -46 -24 -56 23 -17
20 -64 -4 -64 -11 0 -23 -4 -26 -10 -3 -5 -15 -14 -25 -20 -16 -9 -22 -5 -35
20 -12 23 -22 30 -44 30 -45 0 -61 10 -61 36 0 26 -10 30 -28 12 -10 -10 -17
-8 -34 9 l-21 22 -17 -22 c-15 -18 -20 -19 -33 -9 -13 11 -19 6 -44 -38 -23
-42 -32 -50 -50 -47 -17 3 -23 -1 -23 -14 0 -15 -8 -19 -40 -19 -22 0 -40 3
-40 8 0 4 -17 6 -39 4 -34 -3 -41 0 -61 27 -12 18 -26 47 -31 66 -5 19 -15 40
-22 47 -7 7 -13 22 -15 33 -2 11 -10 33 -18 49 -16 32 -29 96 -20 96 3 0 25
-13 48 -30 22 -17 45 -30 50 -30 5 0 30 -10 56 -21 l46 -21 21 25 c11 14 43
33 75 43 30 9 61 22 69 28 14 11 48 24 151 58 59 19 86 38 128 91 12 14 10 20
-15 41 -15 14 -39 28 -53 31 -48 11 -255 120 -274 143 -13 17 -26 22 -44 19
-13 -3 -54 2 -91 9 -36 8 -77 14 -91 14 -24 1 -25 1 -5 16 17 13 18 16 5 24
-24 15 -41 12 -38 -7 2 -14 -4 -18 -32 -19 -19 0 -45 -1 -57 -2 -42 -4 -76
-86 -73 -176 1 -44 -5 -72 -31 -131 -4 -11 -10 -35 -13 -52 -2 -18 -14 -49
-26 -68 -28 -46 -22 -63 20 -57 32 5 33 4 26 -24 -13 -56 -12 -57 32 -68 41
-10 82 -45 82 -68 0 -6 -11 -7 -27 -3 -33 9 -225 9 -254 0 -11 -4 -26 -1 -34
5 -21 17 -19 2 5 -67 11 -32 20 -67 20 -79 0 -29 23 -46 57 -44 53 4 73 0 73
-14 0 -15 21 -26 51 -26 10 0 25 -13 34 -30 18 -35 8 -38 -28 -9 -21 15 -41
20 -89 20 -35 0 -93 4 -130 11 -61 10 -69 9 -103 -11 -28 -16 -40 -19 -51 -10
-18 15 -33 3 -50 -37 -18 -44 -18 -94 2 -155 17 -50 40 -70 28 -24 -7 29 3
124 16 144 7 12 17 12 67 -4 72 -22 223 -93 223 -104 0 -16 -27 -19 -101 -10
-50 6 -89 5 -121 -3 -46 -11 -65 -28 -33 -28 8 0 15 -7 15 -15 0 -48 56 -95
113 -95 36 0 47 -19 37 -64 -10 -45 -11 -46 -41 -49 -13 -1 -41 -15 -63 -32
l-38 -29 -23 28 c-13 16 -25 43 -28 61 -3 18 -16 57 -30 86 -22 50 -52 140
-76 234 -6 22 -15 98 -21 170 -6 71 -17 176 -26 233 -30 209 -29 262 5 431 17
85 33 156 34 158 11 10 48 -63 47 -90 -4 -66 -2 -69 29 -62 24 5 32 1 50 -24
22 -30 17 -47 -9 -30 -23 14 -31 11 -21 -8 6 -10 15 -47 20 -82 6 -35 16 -69
22 -77 17 -20 117 -7 146 18 20 18 80 187 98 276 4 18 10 30 13 28 4 -2 12 7
19 20 14 29 -4 46 -22 20 -11 -15 -15 -13 -41 19 -35 43 -82 61 -190 70 -71 6
-85 5 -123 -15 l-43 -22 7 74 c11 124 46 320 67 373 26 68 86 186 106 210 14
17 72 66 76 65 0 -1 24 -8 51 -18z m-2657 -338 c23 -16 30 -44 11 -44 -8 0
-39 -58 -39 -74 0 -2 9 -2 20 1 11 3 27 0 34 -6 12 -10 17 -8 25 8 6 11 11 26
11 34 0 16 41 37 71 37 31 0 33 -27 5 -70 -14 -22 -26 -53 -26 -69 0 -16 -6
-31 -15 -35 -8 -3 -15 -13 -15 -22 0 -30 -25 -8 -30 27 -4 26 -10 34 -25 34
-11 0 -26 4 -33 8 -8 6 -23 -4 -44 -27 -38 -43 -70 -51 -44 -12 9 14 13 32 10
40 -3 8 4 32 15 55 12 23 21 59 21 86 0 49 10 56 48 29z m508 -444 c19 0 18
-29 -3 -52 -15 -17 -15 -20 -1 -34 12 -13 20 -14 37 -5 29 16 26 0 -5 -34 -19
-21 -28 -25 -34 -15 -11 19 -96 22 -110 5 -27 -32 -50 -11 -50 45 0 32 13 45
53 55 16 4 38 20 49 36 18 24 23 26 35 13 8 -8 21 -14 29 -14z m221 -120 c20
-24 28 -28 39 -19 16 13 20 6 29 -63 5 -41 4 -47 -15 -53 -11 -4 -20 -15 -20
-27 0 -17 -2 -18 -15 -8 -8 7 -15 18 -15 25 0 16 -27 27 -35 15 -4 -6 -24 -10
-47 -10 l-40 0 16 25 c15 22 15 27 2 48 -20 30 -1 73 31 69 11 -2 23 4 26 13
9 21 15 19 44 -15z m3566 -55 c18 -18 32 -148 22 -202 -9 -51 -61 -149 -130
-243 -60 -85 -100 -119 -151 -130 -49 -11 -83 3 -95 40 -14 40 -32 38 -55 -5
-22 -42 -31 -44 -44 -9 -14 35 -13 44 5 44 21 0 19 30 -2 31 -10 1 -22 1 -27
0 -5 -1 -5 6 -2 15 4 10 1 21 -5 25 -9 5 -8 11 4 23 8 9 19 16 22 16 4 0 24
14 45 30 27 22 45 48 60 88 27 72 36 82 71 82 25 0 30 -5 39 -41 13 -49 2 -84
-41 -130 -34 -36 -34 -36 -14 -56 14 -13 18 -12 36 11 31 40 119 33 103 -7 -4
-11 -1 -17 9 -17 10 0 17 15 22 48 4 26 11 55 16 65 6 11 6 37 1 68 -8 40 -17
57 -46 81 -37 30 -39 48 -6 48 10 0 32 8 48 17 25 14 33 15 61 4 19 -8 31 -21
31 -32 0 -24 16 -33 24 -13 10 27 7 89 -6 102 -7 7 -20 12 -29 12 -24 0 -33
18 -19 35 16 19 35 19 53 0z m-3868 -83 c4 -9 10 -10 24 -3 23 13 45 -8 35
-33 -6 -15 -8 -15 -30 -1 -26 17 -29 10 -14 -29 8 -21 6 -27 -10 -36 -22 -12
-50 -3 -50 15 0 7 -7 15 -15 19 -13 4 -12 1 1 -20 23 -34 6 -54 -31 -34 -28
15 -31 27 -11 55 7 11 16 37 20 58 5 27 12 37 25 37 10 0 25 7 32 17 13 15 14
14 17 -8 2 -13 5 -30 7 -37z m-770 -111 c3 -6 1 -19 -5 -30 -7 -14 -7 -22 1
-27 8 -4 9 -31 4 -83 -8 -95 -13 -113 -28 -104 -7 4 -15 8 -19 8 -4 0 -16 8
-27 17 -18 15 -20 26 -16 93 2 42 9 83 15 93 10 14 11 15 7 1 -4 -13 -1 -15
15 -11 17 4 19 12 17 51 -2 25 1 57 6 71 8 23 10 21 16 -22 4 -26 10 -52 14
-57z m631 -357 c25 -1 64 -22 64 -34 0 -15 -20 -22 -34 -11 -7 6 -16 8 -19 4
-15 -14 -6 -42 20 -58 25 -17 25 -19 9 -31 -10 -7 -24 -10 -32 -7 -8 3 -21 -1
-30 -8 -14 -11 -18 -10 -30 5 -7 10 -15 24 -17 30 -3 7 -11 5 -24 -6 -23 -21
-53 -23 -53 -4 0 7 7 19 15 26 9 7 15 29 15 51 0 31 8 48 37 80 l38 42 11 -39
c8 -28 17 -39 30 -40z m3501 -37 c-11 -16 -26 -31 -33 -34 -8 -3 -14 -13 -14
-22 -1 -22 -19 -44 -55 -66 -44 -28 -85 -68 -85 -82 0 -7 -4 -13 -10 -13 -5 0
-10 17 -11 38 0 32 -1 34 -9 15 -6 -13 -18 -23 -30 -23 -11 0 -20 -4 -20 -10
0 -5 -4 -10 -10 -10 -5 0 -10 9 -10 20 0 12 7 20 16 20 12 0 15 6 10 23 -3 12
-6 32 -6 45 0 13 -6 22 -15 22 -8 0 -15 9 -15 20 0 17 3 18 27 9 15 -6 24 -7
20 -3 -12 13 45 104 66 104 14 0 17 -4 12 -17 -22 -52 -37 -105 -30 -111 10
-10 35 28 35 53 0 14 14 31 41 48 33 22 43 25 59 15 14 -9 18 -19 13 -38 -6
-25 -6 -25 16 -6 11 11 21 29 21 41 0 32 12 38 25 12 10 -18 8 -27 -8 -50z
m-2843 14 c14 -16 16 -31 10 -93 -7 -85 -18 -97 -77 -90 -42 5 -44 11 -16 79
17 42 7 50 -30 23 -34 -23 -37 -19 -20 29 8 22 17 31 33 31 13 0 31 9 41 20
23 25 37 25 59 1z m-422 -88 c6 -16 10 -52 9 -80 -1 -48 1 -53 20 -53 14 0 19
-5 17 -17 -2 -10 -10 -17 -17 -15 -8 2 -22 -5 -32 -14 -15 -13 -19 -14 -19 -3
0 8 -5 21 -10 29 -8 12 -12 11 -32 -7 -22 -21 -24 -21 -44 -5 -12 9 -25 33
-28 53 -5 31 -2 41 21 68 29 33 48 39 56 19 3 -7 10 2 17 20 15 39 27 41 42 5z
m3473 -53 c6 -8 19 -20 29 -26 25 -13 43 -41 33 -50 -4 -4 -18 3 -32 16 -28
26 -30 23 -38 -48 -4 -30 -16 -56 -42 -87 -41 -50 -50 -53 -83 -25 -19 16 -21
23 -13 39 6 11 11 28 11 38 0 10 9 26 20 36 24 20 26 47 5 47 -19 0 -19 24 0
40 8 7 13 16 10 20 -3 4 2 10 10 14 8 3 17 1 20 -5 8 -13 27 0 22 14 -2 7 0
21 6 32 10 19 11 18 21 -10 6 -17 16 -37 21 -45z m-3820 -50 c7 -30 19 -38 30
-20 11 18 54 11 75 -12 19 -20 19 -23 4 -38 -12 -11 -18 -12 -21 -2 -6 15 -35
16 -51 0 -17 -17 -15 -48 3 -48 8 0 15 9 15 20 0 30 23 24 39 -11 16 -37 8
-47 -49 -60 -29 -7 -47 -6 -54 1 -5 5 -17 10 -26 10 -9 0 -25 9 -34 19 -17 18
-17 22 -2 43 9 12 16 40 16 62 0 38 24 81 41 71 4 -3 10 -19 14 -35z m562 -31
c8 -8 17 -8 32 0 20 11 21 9 21 -24 0 -31 3 -35 25 -35 16 0 36 -12 55 -32 34
-38 38 -58 11 -58 -11 0 -23 -5 -26 -10 -4 -6 -15 -8 -26 -5 -16 5 -19 1 -19
-26 l0 -33 -20 22 c-12 12 -32 30 -46 39 -14 9 -30 27 -35 40 -5 15 -17 23
-32 23 -35 0 -39 10 -17 38 11 13 20 30 20 36 0 15 21 36 35 36 6 0 16 -5 22
-11z m-322 -101 c18 -8 24 -16 19 -27 -4 -9 -7 -30 -6 -46 2 -39 37 -112 46
-96 8 12 46 15 46 4 -1 -19 -29 -43 -43 -37 -8 3 -27 -2 -42 -12 -25 -17 -40
-13 -40 9 0 7 -13 12 -29 12 -18 0 -34 8 -43 23 -15 21 -14 22 16 22 25 0 31
4 31 21 0 16 -4 19 -20 14 -22 -7 -50 10 -50 30 0 12 72 95 83 95 3 0 18 -5
32 -12z m265 -144 c9 -7 31 -14 50 -15 48 -3 60 -15 60 -60 0 -64 -56 -135
-90 -114 -6 4 -26 1 -45 -5 l-35 -12 0 -71 c0 -39 -6 -98 -14 -131 -8 -34 -20
-117 -27 -186 -6 -69 -13 -134 -14 -145 -7 -69 -55 -101 -134 -89 -81 12 -110
37 -111 94 0 19 -6 47 -14 62 -13 24 -12 34 3 80 29 85 43 166 46 265 2 51 6
97 10 102 3 6 3 21 0 34 -7 25 18 46 30 27 8 -13 48 -13 62 1 8 8 26 8 64 -1
64 -14 109 -2 109 29 0 26 -17 36 -35 21 -19 -16 -45 -5 -45 18 0 22 26 79 48
104 16 19 55 15 82 -8z m-414 -36 c11 -33 11 -37 -7 -41 -13 -4 -17 -10 -12
-23 5 -14 2 -16 -20 -10 -19 4 -27 2 -27 -6 0 -23 17 -40 36 -36 14 2 20 -4
22 -21 3 -19 0 -22 -13 -17 -26 10 -64 -4 -71 -26 -6 -19 -7 -18 -37 5 -25 19
-32 33 -34 63 -1 22 -5 55 -8 75 -6 30 -3 40 16 58 30 28 49 27 49 -4 0 -14 5
-25 10 -25 6 0 10 7 10 16 0 24 30 43 54 35 11 -4 25 -24 32 -43z m-69 -239
c7 -7 6 -22 -4 -52 -8 -22 -11 -52 -8 -66 7 -27 37 -61 53 -61 5 0 15 -6 21
-14 9 -11 7 -15 -11 -19 -14 -4 -26 0 -34 11 -7 9 -21 17 -31 17 -11 0 -19 9
-21 22 -2 16 -9 22 -25 20 -16 -1 -23 6 -30 30 -5 18 -6 40 -2 50 5 10 7 26 6
37 -2 10 3 23 11 27 18 12 62 11 75 -2z"/>
<path d="M2731 2050 c-8 -26 -15 -30 -45 -30 -39 0 -43 -6 -22 -35 7 -11 17
-43 21 -72 6 -49 5 -54 -23 -81 -17 -17 -28 -34 -24 -38 4 -4 -4 -1 -17 7 -15
9 -30 33 -38 62 -10 35 -19 47 -33 47 -24 0 -40 -28 -40 -69 0 -33 6 -37 30
-21 18 11 41 -6 33 -26 -4 -10 3 -14 22 -14 32 0 29 -20 -5 -37 -27 -13 -52
-1 -44 21 5 14 -22 30 -30 18 -8 -13 -38 -117 -51 -177 -7 -33 -12 -87 -11
-120 1 -55 4 -60 25 -63 13 -2 26 -12 28 -23 3 -10 9 -19 13 -19 19 0 40 13
40 25 0 7 7 18 15 25 8 6 21 37 30 68 8 32 20 65 25 74 6 10 10 27 10 38 0 25
17 26 25 1 3 -10 14 -26 25 -36 19 -18 20 -17 20 8 0 14 -5 29 -11 33 -6 3 -9
17 -6 31 2 14 0 38 -6 53 -14 37 7 104 41 130 21 17 23 24 17 64 -5 33 -2 58
14 101 25 67 25 62 2 75 -16 8 -21 5 -30 -20z"/>
</g>
</svg>
